<svg xmlns="http://www.w3.org/2000/svg" viewBox="55 55 470 470" role="img" aria-label="Instituto Inclusão na Escola">
<path d="M233.62 451.1c-17.79 0-32.22-14.42-32.22-32.22 0-17.79 14.43-32.22 32.22-32.22 5.95 0 11.52 1.61 16.3 4.43 3.48 2.05 7.86-.43 7.86-4.46v-54.49c0-5.48-4.44-9.91-9.91-9.91h-54.49c-4.04 0-6.51 4.38-4.46 7.86a32.06 32.06 0 0 1 4.43 16.3c0 17.79-14.43 32.22-32.22 32.22s-32.22-14.42-32.22-32.22c0-5.95 1.61-11.52 4.43-16.3 2.05-3.48-.43-7.86-4.46-7.86H74.39c-5.48 0-9.91 4.44-9.91 9.91 0 101.29 82.11 183.4 183.4 183.4 5.48 0 9.91-4.44 9.91-9.91v-54.49c0-4.04-4.38-6.51-7.86-4.46a32.06 32.06 0 0 1-16.3 4.43Z" fill="#2b5cd2"/>
<path d="M233.62 193.34c5.95 0 11.52 1.61 16.3 4.43 3.48 2.05 7.87-.43 7.87-4.46v-54.49c0-5.48-4.44-9.91-9.91-9.91-101.29 0-183.4 82.11-183.4 183.4 0 5.48 4.44 9.91 9.91 9.91h54.49c4.04 0 6.51 4.39 4.46 7.87a32.06 32.06 0 0 0-4.43 16.3c0 17.79 14.43 32.22 32.22 32.22s32.22-14.43 32.22-32.22c0-5.95-1.61-11.52-4.43-16.3-2.05-3.48.43-7.87 4.46-7.87h54.49c5.48 0 9.91-4.44 9.91-9.91v-54.49c0-4.04-4.39-6.51-7.87-4.46a32.06 32.06 0 0 1-16.3 4.43c-17.79 0-32.22-14.42-32.22-32.22 0-17.79 14.43-32.22 32.22-32.22Z" fill="#47c249"/>
<path d="M482.24 188.17c-2.15-3.71-7.54-3.33-9.25.61a39.6 39.6 0 0 1-10.88 14.57c-16.78 14.08-41.79 11.89-55.87-4.88-14.08-16.78-11.89-41.79 4.88-55.87 5.03-4.22 10.8-6.97 16.79-8.31 4.22-.94 5.61-6.21 2.35-9.04C386.74 87.4 329.9 64.48 267.69 64.48c-5.48 0-9.91 4.44-9.91 9.91v118.92c0 4.04-4.39 6.51-7.87 4.46a32.06 32.06 0 0 0-16.3-4.43c-17.79 0-32.22 14.42-32.22 32.22 0 17.79 14.43 32.22 32.22 32.22 5.95 0 11.52-1.61 16.3-4.43 3.48-2.05 7.87.43 7.87 4.46v54.49c0 5.48 4.44 9.91 9.91 9.91h237.93c5.48 0 9.91-4.44 9.91-9.91 0-45.23-12.12-87.63-33.29-124.14Z" fill="#ffc803"/>
<path fill="#233a55" d="M467.22 166.93v.01c0 10.04-8.14 18.18-18.18 18.18h-.01c-10.04 0-18.18-8.14-18.18-18.18v-.01c0-10.04 8.14-18.18 18.18-18.18h.01c10.04 0 18.18 8.14 18.18 18.18"/>
</svg>
